<svg xmlns="http://www.w3.org/2000/svg" xmlns:xlink="http://www.w3.org/1999/xlink" width="456.568" height="436.232" viewBox="0 0 456.568 436.232">
  <defs>
    <linearGradient id="linear-gradient" y1="0.5" x2="1" y2="0.5" gradientUnits="objectBoundingBox">
      <stop offset="0" stop-color="#e39a65"/>
      <stop offset="1" stop-color="#e95f8d"/>
    </linearGradient>
    <radialGradient id="radial-gradient" cx="0.193" cy="-0.023" r="1.117" gradientTransform="translate(-0.04) scale(1.08 1)" gradientUnits="objectBoundingBox">
      <stop offset="0" stop-color="#e39a65"/>
      <stop offset="0.474" stop-color="#a92ffb"/>
      <stop offset="0.595" stop-color="#881bfa"/>
      <stop offset="0.742" stop-color="#6507fa"/>
      <stop offset="0.802" stop-color="#0d0c6f"/>
    </radialGradient>
    <radialGradient id="radial-gradient-2" cx="0.01" cy="0.384" r="1.712" gradientTransform="translate(0.213) scale(0.573 1)" gradientUnits="objectBoundingBox">
      <stop offset="0" stop-color="#e39a65"/>
      <stop offset="0.474" stop-color="#a92ffb"/>
      <stop offset="0.568" stop-color="#881bfa"/>
      <stop offset="0.683" stop-color="#6507fa"/>
      <stop offset="0.738" stop-color="#0d0c6f"/>
    </radialGradient>
    <radialGradient id="radial-gradient-3" cx="0.101" cy="0.074" r="1.524" gradientTransform="translate(0.211) scale(0.577 1)" gradientUnits="objectBoundingBox">
      <stop offset="0" stop-color="#e39a65"/>
      <stop offset="0.474" stop-color="#a92ffb"/>
      <stop offset="0.588" stop-color="#881bfa"/>
      <stop offset="0.726" stop-color="#6507fa"/>
      <stop offset="1" stop-color="#3919bb"/>
    </radialGradient>
    <radialGradient id="radial-gradient-4" cx="-0.116" cy="0.206" r="1.121" gradientTransform="translate(-0.038) scale(1.077 1)" xlink:href="#radial-gradient-3"/>
    <linearGradient id="linear-gradient-2" y1="0.5" x2="1" y2="0.5" gradientUnits="objectBoundingBox">
      <stop offset="0" stop-color="#3919bb"/>
      <stop offset="1" stop-color="#6507fa"/>
    </linearGradient>
  </defs>
  <g id="Group_768" data-name="Group 768" transform="translate(-670.143 1856.968)">
    <g id="Group_772" data-name="Group 772" transform="translate(670.143 -1856.968)">
      <path id="Path_3338" data-name="Path 3338" d="M375.443,414.179,163.356,291.73c-3.091-1.786-2.7-4.9.866-6.963l136.119-78.59c3.57-2.06,8.969-2.285,12.06-.5L524.49,328.126c3.091,1.784,2.7,4.9-.866,6.963L387.5,413.678C383.935,415.738,378.534,415.963,375.443,414.179Z" transform="translate(-128.508 -0.053)" fill="#020230" opacity="0.6"/>
      <path id="Path_3339" data-name="Path 3339" d="M390.753,442.226a13.56,13.56,0,0,1-6.674-1.564h0L142.025,300.912a5.412,5.412,0,0,1-3.066-4.634c0-2.122,1.477-4.192,4.053-5.68l165-96.67c4.526-2.614,11.175-2.865,15.14-.574L565.205,333.1a5.406,5.406,0,0,1,3.066,4.633c0,2.122-1.477,4.191-4.054,5.678l-165,96.671A17.314,17.314,0,0,1,390.753,442.226ZM316.51,194.532a14.728,14.728,0,0,0-7.123,1.758l-165,96.67c-1.692.977-2.695,2.214-2.695,3.316a2.889,2.889,0,0,0,1.7,2.269L385.446,438.3h0c3.09,1.787,8.768,1.526,12.4-.57l165-96.671c1.692-.976,2.695-2.214,2.695-3.317a2.888,2.888,0,0,0-1.7-2.267L321.786,195.719A10.822,10.822,0,0,0,316.51,194.532Z" transform="translate(-138.959 -5.994)" fill="url(#linear-gradient)"/>
      <path id="Path_3340" data-name="Path 3340" d="M532.341,188.051,321.088,66.083a5.471,5.471,0,0,0-4.311-.62h0l-.019.006-3.912,1.363,1.377.326a6.849,6.849,0,0,0-1.291,2.416L265.158,224.69a9.358,9.358,0,0,0,3.872,10.438L480.283,357.093a6.191,6.191,0,0,0,1.554.636l-.523,1.14,3.736-1.313-.009,0a5.976,5.976,0,0,0,3.4-3.952l47.773-155.113A9.356,9.356,0,0,0,532.341,188.051Z" transform="translate(-80.016 -65.264)" fill="url(#radial-gradient)"/>
      <path id="Path_3341" data-name="Path 3341" d="M521.191,306.726l.075.09L312.6,186.345c-3.069-1.772-8.432-1.551-11.975.5L165.81,264.677l-4.495-1.717,1.263,6.307.006,0a3.775,3.775,0,0,0,2.023,2.524L375.2,393.375c3.069,1.772,8.43,1.549,11.975-.5l135.16-78.034a5.4,5.4,0,0,0,2.863-3.338l.009.009,1.289-6.138Z" transform="translate(-128.487 -9.105)" fill="url(#radial-gradient-2)"/>
      <path id="Path_3342" data-name="Path 3342" d="M375.443,390.067,163.356,267.618c-3.091-1.784-2.7-4.9.866-6.962l136.119-78.59c3.57-2.06,8.969-2.285,12.06-.5L524.49,304.017c3.091,1.784,2.7,4.9-.866,6.962L387.5,389.568C383.935,391.628,378.534,391.853,375.443,390.067Z" transform="translate(-128.508 -11.347)" fill="url(#radial-gradient-3)"/>
      <path id="Path_3343" data-name="Path 3343" d="M523.612,282.721l-136.12,78.588c-3.568,2.062-8.969,2.285-12.06.5L163.345,239.361a3.957,3.957,0,0,1-1.928-2.2c-.41,1.421.189,2.847,1.928,3.85l212.087,122.45c3.091,1.784,8.492,1.56,12.06-.5l136.12-78.588c2.354-1.36,3.292-3.172,2.794-4.764A5.615,5.615,0,0,1,523.612,282.721Z" transform="translate(-128.497 15.26)" fill="#fff"/>
      <g id="Group_768-2" data-name="Group 768" transform="translate(128.462 197.528)" opacity="0.4">
        <path id="Path_3344" data-name="Path 3344" d="M233.989,229.641l-7.16-4.134c-.574-.332-.5-.912.161-1.3l8.451-4.88a2.5,2.5,0,0,1,2.244-.092l7.16,4.134c.576.332.5.912-.161,1.3l-8.451,4.88A2.5,2.5,0,0,1,233.989,229.641Z" transform="translate(-226.441 -190.768)" fill="#06033e"/>
        <path id="Path_3345" data-name="Path 3345" d="M241.52,233.989l-7.162-4.135c-.574-.332-.5-.91.162-1.294l8.452-4.88a2.492,2.492,0,0,1,2.242-.094l7.16,4.135c.576.332.5.91-.16,1.294l-8.452,4.88A2.488,2.488,0,0,1,241.52,233.989Z" transform="translate(-222.914 -188.732)" fill="#06033e"/>
        <path id="Path_3346" data-name="Path 3346" d="M249.05,238.336l-7.16-4.134c-.576-.332-.5-.912.16-1.3l8.452-4.88a2.492,2.492,0,0,1,2.242-.093l7.162,4.134c.574.332.5.912-.162,1.3l-8.452,4.88A2.492,2.492,0,0,1,249.05,238.336Z" transform="translate(-219.386 -186.695)" fill="#06033e"/>
        <path id="Path_3347" data-name="Path 3347" d="M259.465,234.5l-7.162-4.134c-.574-.332-.5-.912.162-1.3l7.1-4.1a2.492,2.492,0,0,1,2.242-.093l7.16,4.134c.576.332.5.912-.16,1.3l-7.1,4.1A2.492,2.492,0,0,1,259.465,234.5Z" transform="translate(-214.507 -188.127)" fill="#06033e"/>
        <path id="Path_3348" data-name="Path 3348" d="M267,238.842l-7.16-4.134c-.576-.332-.5-.912.16-1.3l7.1-4.1a2.492,2.492,0,0,1,2.242-.092l7.16,4.134c.576.332.5.912-.16,1.3l-7.1,4.1A2.487,2.487,0,0,1,267,238.842Z" transform="translate(-210.98 -186.091)" fill="#06033e"/>
        <path id="Path_3349" data-name="Path 3349" d="M274.525,243.191l-7.16-4.134c-.576-.332-.5-.912.162-1.3l7.094-4.1a2.5,2.5,0,0,1,2.244-.094l7.16,4.135c.574.33.5.91-.162,1.294l-7.094,4.1A2.5,2.5,0,0,1,274.525,243.191Z" transform="translate(-207.452 -184.054)" fill="#06033e"/>
        <path id="Path_3350" data-name="Path 3350" d="M282.055,247.539l-7.16-4.134c-.574-.332-.5-.912.161-1.3l7.094-4.1a2.5,2.5,0,0,1,2.244-.093l7.16,4.134c.576.332.5.912-.161,1.3l-7.094,4.1A2.5,2.5,0,0,1,282.055,247.539Z" transform="translate(-203.925 -182.017)" fill="#06033e"/>
        <path id="Path_3351" data-name="Path 3351" d="M289.586,251.886l-7.16-4.134c-.576-.332-.5-.912.16-1.3l7.1-4.1a2.487,2.487,0,0,1,2.242-.092l7.16,4.134c.576.332.5.912-.16,1.3l-7.1,4.1A2.492,2.492,0,0,1,289.586,251.886Z" transform="translate(-200.397 -179.981)" fill="#06033e"/>
        <path id="Path_3352" data-name="Path 3352" d="M297.116,256.234l-7.16-4.134c-.576-.332-.5-.912.16-1.3l7.1-4.1a2.491,2.491,0,0,1,2.242-.092l7.16,4.134c.576.332.5.912-.16,1.3l-7.1,4.1A2.492,2.492,0,0,1,297.116,256.234Z" transform="translate(-196.87 -177.944)" fill="#06033e"/>
        <path id="Path_3353" data-name="Path 3353" d="M304.646,260.582l-7.16-4.135c-.574-.332-.5-.912.161-1.3l7.094-4.1a2.5,2.5,0,0,1,2.244-.093l7.16,4.134c.574.332.5.912-.161,1.3l-7.094,4.1A2.5,2.5,0,0,1,304.646,260.582Z" transform="translate(-193.342 -175.908)" fill="#06033e"/>
        <path id="Path_3354" data-name="Path 3354" d="M312.176,264.929l-7.16-4.134c-.574-.332-.5-.912.162-1.3l7.094-4.1a2.5,2.5,0,0,1,2.244-.094l7.16,4.135c.574.332.5.91-.162,1.294l-7.094,4.1A2.5,2.5,0,0,1,312.176,264.929Z" transform="translate(-189.815 -173.871)" fill="#06033e"/>
        <path id="Path_3355" data-name="Path 3355" d="M319.707,269.277l-7.162-4.134c-.574-.333-.5-.912.162-1.3l7.1-4.1a2.492,2.492,0,0,1,2.242-.092l7.16,4.134c.576.332.5.912-.16,1.3l-7.1,4.1A2.492,2.492,0,0,1,319.707,269.277Z" transform="translate(-186.288 -171.834)" fill="#06033e"/>
        <path id="Path_3356" data-name="Path 3356" d="M327.237,273.624l-7.16-4.134c-.576-.332-.5-.912.16-1.3l7.1-4.1a2.492,2.492,0,0,1,2.242-.094l7.162,4.135c.574.332.5.912-.162,1.3l-7.1,4.1A2.492,2.492,0,0,1,327.237,273.624Z" transform="translate(-182.76 -169.798)" fill="#06033e"/>
        <path id="Path_3357" data-name="Path 3357" d="M270.56,232.438,263.4,228.3c-.576-.332-.5-.912.16-1.3l7.1-4.1a2.492,2.492,0,0,1,2.242-.093l7.162,4.134c.574.332.5.912-.161,1.3l-7.1,4.1A2.492,2.492,0,0,1,270.56,232.438Z" transform="translate(-209.31 -189.091)" fill="#06033e"/>
        <path id="Path_3358" data-name="Path 3358" d="M262.917,228.025l-7.16-4.134c-.574-.332-.5-.912.161-1.3l7.094-4.1a2.49,2.49,0,0,1,2.244-.094l7.16,4.134c.574.333.5.912-.161,1.3l-7.094,4.1A2.5,2.5,0,0,1,262.917,228.025Z" transform="translate(-212.89 -191.159)" fill="#06033e"/>
        <path id="Path_3359" data-name="Path 3359" d="M257.9,225.126l-15.422-8.9c-.574-.332-.5-.912.161-1.3l7.094-4.1a2.5,2.5,0,0,1,2.244-.094l15.422,8.9c.574.332.5.912-.161,1.3l-7.094,4.1A2.5,2.5,0,0,1,257.9,225.126Z" transform="translate(-219.111 -194.75)" fill="#06033e"/>
        <path id="Path_3360" data-name="Path 3360" d="M262.321,219.217l-12.516-7.226c-.574-.332-.5-.912.162-1.3l7.1-4.1a2.492,2.492,0,0,1,2.242-.094l12.516,7.226c.574.332.5.912-.162,1.3l-7.094,4.1A2.5,2.5,0,0,1,262.321,219.217Z" transform="translate(-215.678 -196.733)" fill="#06033e"/>
        <path id="Path_3361" data-name="Path 3361" d="M278.09,236.785l-7.16-4.134c-.574-.332-.5-.912.161-1.3l7.094-4.1a2.5,2.5,0,0,1,2.244-.094l7.16,4.135c.574.332.5.912-.162,1.294l-7.094,4.1A2.5,2.5,0,0,1,278.09,236.785Z" transform="translate(-205.782 -187.055)" fill="#06033e"/>
        <path id="Path_3362" data-name="Path 3362" d="M285.621,241.133,278.46,237c-.574-.333-.5-.912.162-1.3l7.094-4.1a2.5,2.5,0,0,1,2.244-.092l7.16,4.134c.576.332.5.912-.161,1.3l-7.094,4.1A2.492,2.492,0,0,1,285.621,241.133Z" transform="translate(-202.255 -185.018)" fill="#06033e"/>
        <path id="Path_3363" data-name="Path 3363" d="M293.151,245.479l-7.16-4.134c-.576-.332-.5-.912.16-1.3l7.1-4.1a2.5,2.5,0,0,1,2.242-.094l7.16,4.135c.576.332.5.912-.16,1.3l-7.1,4.1A2.487,2.487,0,0,1,293.151,245.479Z" transform="translate(-198.727 -182.982)" fill="#06033e"/>
        <path id="Path_3364" data-name="Path 3364" d="M300.681,249.828l-7.16-4.134c-.576-.332-.5-.912.161-1.3l7.094-4.1a2.492,2.492,0,0,1,2.242-.093l7.162,4.134c.574.332.5.912-.162,1.3l-7.094,4.1A2.5,2.5,0,0,1,300.681,249.828Z" transform="translate(-195.2 -180.945)" fill="#06033e"/>
        <path id="Path_3365" data-name="Path 3365" d="M308.211,254.176l-7.16-4.135c-.574-.332-.5-.91.161-1.3l7.094-4.1a2.5,2.5,0,0,1,2.244-.093l7.16,4.134c.574.332.5.912-.161,1.3l-7.094,4.1A2.5,2.5,0,0,1,308.211,254.176Z" transform="translate(-191.672 -178.908)" fill="#06033e"/>
        <path id="Path_3366" data-name="Path 3366" d="M315.741,258.523l-7.16-4.134c-.574-.332-.5-.912.161-1.3l7.094-4.1a2.5,2.5,0,0,1,2.244-.094l7.16,4.135c.576.332.5.912-.162,1.3l-7.094,4.1A2.5,2.5,0,0,1,315.741,258.523Z" transform="translate(-188.145 -176.872)" fill="#06033e"/>
        <path id="Path_3367" data-name="Path 3367" d="M323.272,262.871l-7.16-4.134c-.576-.332-.5-.912.16-1.3l7.1-4.1a2.492,2.492,0,0,1,2.242-.092l7.16,4.134c.576.332.5.912-.16,1.3l-7.1,4.1A2.487,2.487,0,0,1,323.272,262.871Z" transform="translate(-184.617 -174.835)" fill="#06033e"/>
        <path id="Path_3368" data-name="Path 3368" d="M330.8,267.218l-7.16-4.134c-.576-.332-.5-.912.161-1.3l7.094-4.1a2.487,2.487,0,0,1,2.242-.093l7.162,4.134c.574.332.5.912-.162,1.3l-7.1,4.1A2.487,2.487,0,0,1,330.8,267.218Z" transform="translate(-181.09 -172.799)" fill="#06033e"/>
        <path id="Path_3369" data-name="Path 3369" d="M338.332,271.566l-7.16-4.134c-.574-.332-.5-.912.161-1.3l7.094-4.1a2.5,2.5,0,0,1,2.244-.094l7.16,4.134c.574.332.5.912-.162,1.3l-7.094,4.1A2.5,2.5,0,0,1,338.332,271.566Z" transform="translate(-177.562 -170.762)" fill="#06033e"/>
        <path id="Path_3370" data-name="Path 3370" d="M354.418,280.853,338.8,271.834c-.574-.333-.5-.912.162-1.3l7.094-4.1a2.494,2.494,0,0,1,2.244-.092l15.623,9.021c.576.33.5.91-.161,1.294l-7.094,4.1A2.5,2.5,0,0,1,354.418,280.853Z" transform="translate(-173.991 -168.7)" fill="#06033e"/>
        <path id="Path_3371" data-name="Path 3371" d="M368.3,271.941l-13.187-7.614c-.576-.332-.5-.912.162-1.3l7.094-4.1a2.494,2.494,0,0,1,2.244-.092l13.187,7.612c.574.332.5.912-.162,1.3l-7.1,4.1A2.491,2.491,0,0,1,368.3,271.941Z" transform="translate(-166.346 -172.216)" fill="#06033e"/>
        <path id="Path_3372" data-name="Path 3372" d="M291.277,235.935l-7.16-4.135c-.574-.332-.5-.91.161-1.3l7.094-4.1a2.5,2.5,0,0,1,2.244-.093l7.16,4.134c.574.332.5.912-.162,1.3l-7.094,4.1A2.5,2.5,0,0,1,291.277,235.935Z" transform="translate(-199.605 -187.453)" fill="#06033e"/>
        <path id="Path_3373" data-name="Path 3373" d="M283.56,231.479l-7.16-4.134c-.576-.333-.5-.912.16-1.3l7.1-4.1a2.492,2.492,0,0,1,2.242-.093l7.16,4.134c.576.332.5.912-.16,1.3l-7.1,4.1A2.487,2.487,0,0,1,283.56,231.479Z" transform="translate(-203.22 -189.541)" fill="#06033e"/>
        <path id="Path_3374" data-name="Path 3374" d="M275.842,227.023l-7.16-4.134c-.574-.332-.5-.912.161-1.3l7.094-4.1a2.5,2.5,0,0,1,2.244-.092l7.16,4.134c.574.332.5.912-.162,1.3l-7.094,4.1A2.5,2.5,0,0,1,275.842,227.023Z" transform="translate(-206.835 -191.628)" fill="#06033e"/>
        <path id="Path_3375" data-name="Path 3375" d="M268.125,222.567l-7.162-4.134c-.574-.332-.5-.912.161-1.3l7.1-4.1a2.492,2.492,0,0,1,2.242-.094l7.16,4.135c.576.332.5.912-.16,1.3l-7.1,4.1A2.492,2.492,0,0,1,268.125,222.567Z" transform="translate(-210.451 -193.715)" fill="#06033e"/>
        <path id="Path_3376" data-name="Path 3376" d="M298.808,240.282l-7.162-4.134c-.574-.332-.5-.912.161-1.3l7.1-4.1a2.492,2.492,0,0,1,2.242-.094l7.16,4.135c.576.332.5.91-.162,1.294l-7.094,4.1A2.492,2.492,0,0,1,298.808,240.282Z" transform="translate(-196.078 -185.417)" fill="#06033e"/>
        <path id="Path_3377" data-name="Path 3377" d="M306.338,244.63l-7.16-4.134c-.576-.332-.5-.912.16-1.3l7.1-4.1a2.492,2.492,0,0,1,2.242-.092l7.16,4.134c.576.332.5.912-.16,1.3l-7.1,4.1A2.487,2.487,0,0,1,306.338,244.63Z" transform="translate(-192.55 -183.38)" fill="#06033e"/>
        <path id="Path_3378" data-name="Path 3378" d="M313.868,248.977l-7.16-4.134c-.576-.332-.5-.912.161-1.3l7.094-4.1a2.49,2.49,0,0,1,2.244-.092l7.16,4.134c.574.332.5.912-.162,1.3l-7.094,4.1A2.5,2.5,0,0,1,313.868,248.977Z" transform="translate(-189.023 -181.344)" fill="#06033e"/>
        <path id="Path_3379" data-name="Path 3379" d="M321.4,253.325l-7.16-4.134c-.574-.332-.5-.912.161-1.3l7.094-4.1a2.5,2.5,0,0,1,2.244-.093l7.16,4.134c.574.332.5.912-.162,1.3l-7.094,4.1A2.5,2.5,0,0,1,321.4,253.325Z" transform="translate(-185.495 -179.307)" fill="#06033e"/>
        <path id="Path_3380" data-name="Path 3380" d="M328.929,257.673l-7.162-4.135c-.574-.332-.5-.912.161-1.294l7.1-4.1a2.492,2.492,0,0,1,2.242-.093l7.16,4.134c.576.332.5.912-.16,1.3l-7.1,4.1A2.492,2.492,0,0,1,328.929,257.673Z" transform="translate(-181.968 -177.27)" fill="#06033e"/>
        <path id="Path_3381" data-name="Path 3381" d="M336.459,262.02l-7.16-4.134c-.576-.332-.5-.912.16-1.3l7.1-4.1a2.492,2.492,0,0,1,2.242-.094l7.16,4.135c.576.332.5.91-.16,1.294l-7.1,4.1A2.492,2.492,0,0,1,336.459,262.02Z" transform="translate(-178.44 -175.234)" fill="#06033e"/>
        <path id="Path_3382" data-name="Path 3382" d="M343.989,266.368l-7.16-4.134c-.576-.333-.5-.912.162-1.3l7.094-4.1a2.5,2.5,0,0,1,2.244-.092l7.16,4.134c.574.332.5.912-.161,1.3l-7.094,4.1A2.491,2.491,0,0,1,343.989,266.368Z" transform="translate(-174.913 -173.197)" fill="#06033e"/>
        <path id="Path_3383" data-name="Path 3383" d="M351.519,270.714l-7.16-4.134c-.574-.332-.5-.912.161-1.3l7.094-4.1a2.5,2.5,0,0,1,2.244-.094l7.16,4.135c.576.332.5.912-.161,1.3l-7.094,4.1A2.5,2.5,0,0,1,351.519,270.714Z" transform="translate(-171.385 -171.16)" fill="#06033e"/>
        <path id="Path_3384" data-name="Path 3384" d="M359.05,275.063l-7.16-4.134c-.576-.332-.5-.912.16-1.3l7.1-4.1a2.491,2.491,0,0,1,2.242-.093l7.16,4.134c.576.332.5.912-.16,1.3l-7.1,4.1A2.492,2.492,0,0,1,359.05,275.063Z" transform="translate(-167.858 -169.124)" fill="#06033e"/>
        <path id="Path_3385" data-name="Path 3385" d="M287.312,225.181l-7.16-4.134c-.574-.332-.5-.912.161-1.3l7.094-4.1a2.491,2.491,0,0,1,2.244-.094l7.16,4.134c.574.333.5.912-.161,1.3l-7.094,4.1A2.5,2.5,0,0,1,287.312,225.181Z" transform="translate(-201.462 -192.491)" fill="#06033e"/>
        <path id="Path_3386" data-name="Path 3386" d="M279.819,220.855l-7.16-4.134c-.574-.332-.5-.912.161-1.3l7.094-4.1a2.49,2.49,0,0,1,2.244-.094l7.16,4.134c.576.333.5.912-.162,1.3l-7.094,4.1A2.5,2.5,0,0,1,279.819,220.855Z" transform="translate(-204.972 -194.517)" fill="#06033e"/>
        <path id="Path_3387" data-name="Path 3387" d="M272.327,216.529l-7.162-4.134c-.574-.332-.5-.912.162-1.3l7.1-4.1a2.487,2.487,0,0,1,2.242-.094l7.16,4.134c.576.333.5.912-.16,1.3l-7.1,4.1A2.492,2.492,0,0,1,272.327,216.529Z" transform="translate(-208.482 -196.544)" fill="#06033e"/>
        <path id="Path_3388" data-name="Path 3388" d="M264.834,212.2l-7.16-4.134c-.576-.332-.5-.912.16-1.3l7.1-4.1a2.488,2.488,0,0,1,2.242-.094l7.16,4.134c.576.333.5.912-.16,1.3l-7.1,4.1A2.492,2.492,0,0,1,264.834,212.2Z" transform="translate(-211.992 -198.57)" fill="#06033e"/>
        <path id="Path_3389" data-name="Path 3389" d="M272.539,206.88l-7.16-4.134c-.576-.333-.5-.912.16-1.3l2.345-1.354a2.49,2.49,0,0,1,2.244-.094l7.16,4.134c.574.332.5.912-.161,1.3l-2.345,1.354A2.492,2.492,0,0,1,272.539,206.88Z" transform="translate(-208.383 -199.779)" fill="#06033e"/>
        <path id="Path_3390" data-name="Path 3390" d="M282.317,212.525l-7.16-4.134c-.576-.332-.5-.912.16-1.3l2.345-1.354a2.49,2.49,0,0,1,2.244-.093l7.16,4.134c.576.332.5.912-.162,1.3l-2.345,1.354A2.492,2.492,0,0,1,282.317,212.525Z" transform="translate(-203.803 -197.135)" fill="#06033e"/>
        <path id="Path_3391" data-name="Path 3391" d="M289.778,216.833l-7.16-4.134c-.574-.332-.5-.912.162-1.3l2.345-1.354a2.49,2.49,0,0,1,2.244-.093l7.16,4.134c.574.332.5.912-.161,1.3l-2.345,1.354A2.5,2.5,0,0,1,289.778,216.833Z" transform="translate(-200.307 -195.117)" fill="#06033e"/>
        <path id="Path_3392" data-name="Path 3392" d="M297.24,221.141l-7.16-4.134c-.576-.332-.5-.912.16-1.3l2.347-1.354a2.492,2.492,0,0,1,2.242-.094l7.16,4.135c.576.332.5.912-.16,1.3l-2.346,1.354A2.492,2.492,0,0,1,297.24,221.141Z" transform="translate(-196.812 -193.099)" fill="#06033e"/>
        <path id="Path_3393" data-name="Path 3393" d="M304.7,225.449l-7.16-4.134c-.574-.332-.5-.912.162-1.3l2.345-1.354a2.5,2.5,0,0,1,2.244-.094l7.16,4.135c.574.332.5.912-.162,1.3l-2.345,1.354A2.5,2.5,0,0,1,304.7,225.449Z" transform="translate(-193.317 -191.081)" fill="#06033e"/>
        <path id="Path_3394" data-name="Path 3394" d="M346.358,249.5l-7.16-4.135c-.574-.332-.5-.912.161-1.3l2.345-1.354a2.492,2.492,0,0,1,2.242-.093l7.162,4.134c.574.332.5.912-.162,1.3l-2.345,1.354A2.5,2.5,0,0,1,346.358,249.5Z" transform="translate(-173.803 -179.814)" fill="#06033e"/>
        <path id="Path_3395" data-name="Path 3395" d="M353.82,253.807l-7.16-4.134c-.576-.332-.5-.912.16-1.3l2.347-1.354a2.492,2.492,0,0,1,2.242-.092l7.16,4.134c.576.332.5.912-.16,1.3l-2.347,1.354A2.487,2.487,0,0,1,353.82,253.807Z" transform="translate(-170.307 -177.796)" fill="#06033e"/>
        <path id="Path_3396" data-name="Path 3396" d="M361.281,258.116l-7.16-4.135c-.574-.332-.5-.912.161-1.3l2.345-1.354a2.5,2.5,0,0,1,2.244-.093l7.16,4.134c.574.332.5.912-.162,1.3l-2.345,1.354A2.5,2.5,0,0,1,361.281,258.116Z" transform="translate(-166.812 -175.778)" fill="#06033e"/>
        <path id="Path_3397" data-name="Path 3397" d="M368.743,262.423l-7.16-4.134c-.576-.332-.5-.912.162-1.3l2.345-1.354a2.492,2.492,0,0,1,2.242-.092l7.16,4.134c.576.332.5.912-.16,1.3l-2.345,1.354A2.49,2.49,0,0,1,368.743,262.423Z" transform="translate(-163.317 -173.76)" fill="#06033e"/>
        <path id="Path_3398" data-name="Path 3398" d="M294.842,229.529l-7.16-4.135c-.574-.332-.5-.91.161-1.3l7.094-4.1a2.5,2.5,0,0,1,2.244-.092l7.16,4.134c.576.332.5.912-.162,1.3l-7.094,4.1A2.5,2.5,0,0,1,294.842,229.529Z" transform="translate(-197.935 -190.454)" fill="#06033e"/>
        <path id="Path_3399" data-name="Path 3399" d="M302.373,233.876l-7.16-4.134c-.576-.332-.5-.912.16-1.3l7.1-4.1a2.492,2.492,0,0,1,2.242-.094l7.16,4.135c.576.332.5.912-.16,1.294l-7.1,4.1A2.492,2.492,0,0,1,302.373,233.876Z" transform="translate(-194.407 -188.418)" fill="#06033e"/>
        <path id="Path_3400" data-name="Path 3400" d="M309.9,238.224l-7.16-4.134c-.576-.332-.5-.912.16-1.3l7.1-4.1a2.492,2.492,0,0,1,2.242-.092l7.162,4.134c.574.332.5.912-.161,1.3l-7.1,4.1A2.492,2.492,0,0,1,309.9,238.224Z" transform="translate(-190.88 -186.381)" fill="#06033e"/>
        <path id="Path_3401" data-name="Path 3401" d="M317.433,242.57l-7.16-4.134c-.574-.332-.5-.912.162-1.3l7.094-4.1a2.5,2.5,0,0,1,2.244-.092l7.16,4.134c.574.332.5.912-.162,1.3l-7.094,4.1A2.49,2.49,0,0,1,317.433,242.57Z" transform="translate(-187.352 -184.344)" fill="#06033e"/>
        <path id="Path_3402" data-name="Path 3402" d="M324.963,246.919l-7.16-4.134c-.574-.332-.5-.912.162-1.3l7.094-4.1a2.5,2.5,0,0,1,2.244-.093l7.16,4.134c.576.332.5.912-.161,1.3l-7.094,4.1A2.494,2.494,0,0,1,324.963,246.919Z" transform="translate(-183.825 -182.308)" fill="#06033e"/>
        <path id="Path_3403" data-name="Path 3403" d="M332.494,251.267l-7.16-4.135c-.576-.332-.5-.91.16-1.294l7.1-4.1a2.492,2.492,0,0,1,2.242-.093l7.16,4.134c.576.332.5.912-.16,1.3l-7.1,4.1A2.492,2.492,0,0,1,332.494,251.267Z" transform="translate(-180.298 -180.271)" fill="#06033e"/>
        <path id="Path_3404" data-name="Path 3404" d="M340.024,255.614l-7.16-4.134c-.576-.332-.5-.912.16-1.3l7.1-4.1a2.492,2.492,0,0,1,2.242-.094l7.162,4.135c.574.332.5.91-.162,1.3l-7.1,4.1A2.492,2.492,0,0,1,340.024,255.614Z" transform="translate(-176.77 -178.235)" fill="#06033e"/>
        <path id="Path_3405" data-name="Path 3405" d="M347.554,259.962l-7.16-4.134c-.574-.332-.5-.912.162-1.3l7.094-4.1a2.5,2.5,0,0,1,2.244-.093l7.16,4.134c.574.332.5.912-.162,1.3l-7.094,4.1A2.494,2.494,0,0,1,347.554,259.962Z" transform="translate(-173.242 -176.198)" fill="#06033e"/>
        <path id="Path_3406" data-name="Path 3406" d="M355.085,264.308l-7.162-4.134c-.574-.332-.5-.912.161-1.3l7.1-4.1a2.492,2.492,0,0,1,2.242-.092l7.16,4.134c.576.332.5.912-.162,1.3l-7.094,4.1A2.491,2.491,0,0,1,355.085,264.308Z" transform="translate(-169.715 -174.161)" fill="#06033e"/>
        <path id="Path_3407" data-name="Path 3407" d="M256.234,232.63l-21.088-12.175c-.576-.332-.5-.912.162-1.3l7.094-4.1a2.49,2.49,0,0,1,2.244-.092l21.087,12.175c.576.332.5.912-.16,1.3l-7.1,4.1A2.492,2.492,0,0,1,256.234,232.63Z" transform="translate(-222.545 -192.768)" fill="#06033e"/>
        <path id="Path_3408" data-name="Path 3408" d="M348.745,286.042l-21.088-12.175c-.576-.333-.5-.912.162-1.3l7.094-4.1a2.5,2.5,0,0,1,2.244-.092l21.087,12.175c.576.332.5.912-.16,1.3l-7.1,4.1A2.492,2.492,0,0,1,348.745,286.042Z" transform="translate(-179.209 -167.748)" fill="#06033e"/>
        <path id="Path_3409" data-name="Path 3409" d="M314.187,275.944l-7.16-4.135c-.574-.332-.5-.912.161-1.3l8.451-4.88a2.5,2.5,0,0,1,2.244-.092l7.16,4.134c.574.332.5.912-.161,1.3l-8.451,4.88A2.5,2.5,0,0,1,314.187,275.944Z" transform="translate(-188.873 -169.079)" fill="#06033e"/>
        <path id="Path_3410" data-name="Path 3410" d="M260.871,245.161,249.42,238.55c-.576-.332-.5-.912.162-1.3l8.451-4.88a2.49,2.49,0,0,1,2.244-.092l11.451,6.611c.576.332.5.912-.161,1.3l-8.451,4.88A2.5,2.5,0,0,1,260.871,245.161Z" transform="translate(-215.859 -184.659)" fill="#06033e"/>
        <path id="Path_3411" data-name="Path 3411" d="M308.3,272.544l-11.452-6.611c-.574-.332-.5-.912.162-1.3l8.452-4.88a2.492,2.492,0,0,1,2.242-.093l11.451,6.611c.576.332.5.912-.16,1.3l-8.452,4.88A2.487,2.487,0,0,1,308.3,272.544Z" transform="translate(-193.641 -171.831)" fill="#06033e"/>
        <path id="Path_3412" data-name="Path 3412" d="M271.736,251.434l-11.451-6.612c-.576-.332-.5-.912.16-1.294l8.452-4.88a2.487,2.487,0,0,1,2.242-.094l11.452,6.612c.574.332.5.91-.161,1.3l-8.452,4.878A2.492,2.492,0,0,1,271.736,251.434Z" transform="translate(-210.769 -181.72)" fill="#06033e"/>
        <path id="Path_3413" data-name="Path 3413" d="M271.069,238.514l49.787,28.745a.681.681,0,0,1,0,1.291l-8.618,4.977a2.473,2.473,0,0,1-2.238,0l-49.787-28.745Z" transform="translate(-210.621 -181.634)" fill="#06033e"/>
        <path id="Path_3414" data-name="Path 3414" d="M334.658,280.495l7.977,4.6c.471.272.411.747-.132,1.062l-3.458,2a2.045,2.045,0,0,1-1.839.076l-7.975-4.6c-.471-.272-.413-.747.132-1.062l3.457-2A2.044,2.044,0,0,1,334.658,280.495Z" transform="translate(-178.439 -162.055)" fill="#06033e"/>
        <path id="Path_3415" data-name="Path 3415" d="M327.065,276.11l7.977,4.605c.471.273.413.747-.132,1.062l-3.457,2a2.05,2.05,0,0,1-1.839.076l-7.977-4.605c-.471-.273-.413-.747.132-1.062l3.457-2A2.05,2.05,0,0,1,327.065,276.11Z" transform="translate(-181.996 -164.108)" fill="#06033e"/>
        <path id="Path_3416" data-name="Path 3416" d="M319.535,271.763l7.977,4.605c.471.272.411.747-.132,1.062l-3.458,2a2.044,2.044,0,0,1-1.838.076l-7.975-4.605c-.471-.272-.413-.747.132-1.062l3.457-2A2.044,2.044,0,0,1,319.535,271.763Z" transform="translate(-185.523 -166.145)" fill="#06033e"/>
        <path id="Path_3417" data-name="Path 3417" d="M331.224,273.711l7.975,4.605c.471.272.413.747-.132,1.06l-3.457,2a2.045,2.045,0,0,1-1.839.076l-7.977-4.605c-.471-.272-.411-.747.132-1.062l3.458-2A2.04,2.04,0,0,1,331.224,273.711Z" transform="translate(-180.048 -165.233)" fill="#06033e"/>
      </g>
      <path id="Path_3492" data-name="Path 3492" d="M477.831,357.951,266.578,235.986a9.359,9.359,0,0,1-3.872-10.438L310.48,70.433c1.184-3.846,4.836-5.41,8.157-3.492L529.89,188.909a9.356,9.356,0,0,1,3.872,10.438L485.988,354.459C484.806,358.307,481.152,359.869,477.831,357.951Z" transform="translate(-81.165 -64.862)" fill="url(#radial-gradient-4)"/>
      <path id="Path_3493" data-name="Path 3493" d="M474.391,350.734l-204.9-118.4a8.954,8.954,0,0,1-3.706-9.988L311.456,74.059c1.132-3.681,4.627-5.178,7.806-3.342l204.9,118.4a8.956,8.956,0,0,1,3.706,9.99L482.2,347.392C481.065,351.074,477.571,352.57,474.391,350.734Z" transform="translate(-79.717 -63.077)" fill="url(#linear-gradient-2)"/>
      <path id="Path_3499" data-name="Path 3499" d="M456.242,182.1,317.533,102.019a3.453,3.453,0,0,0-3.9.134,3.736,3.736,0,0,1,2,.512L454.342,182.75a6.144,6.144,0,0,1,2.543,6.853L425.516,291.45a4.185,4.185,0,0,1-1.454,2.16,3.67,3.67,0,0,0,3.354-2.806l31.367-101.847A6.141,6.141,0,0,0,456.242,182.1Z" transform="translate(-57.136 -48.298)" fill="#fff"/>
      <path id="Path_3500" data-name="Path 3500" d="M288.43,307.472a10.436,10.436,0,0,1-5.14-1.206h0l-55.573-32.084a4.018,4.018,0,0,1-2.283-3.424c0-1.576,1.117-3.123,3.065-4.248L257.1,249.994c3.5-2.016,8.626-2.214,11.684-.451l55.573,32.085a4.017,4.017,0,0,1,2.285,3.424c0,1.574-1.117,3.123-3.065,4.247l-28.608,16.518A13.4,13.4,0,0,1,288.43,307.472Zm-24.755-57.507a11.93,11.93,0,0,0-5.768,1.42L229.3,267.9c-1.439.831-2.264,1.874-2.264,2.859a2.534,2.534,0,0,0,1.483,2.032l55.573,32.087c2.521,1.452,7.135,1.25,10.078-.452l28.607-16.516c1.439-.83,2.263-1.871,2.263-2.858a2.538,2.538,0,0,0-1.483-2.034l-55.572-32.084A8.816,8.816,0,0,0,263.675,249.965Z" transform="translate(-98.45 20.497)" fill="#06033e" opacity="0.4"/>
    </g>
  </g>
</svg>
