<svg xmlns="http://www.w3.org/2000/svg" width="81.282" height="47.082" viewBox="0 0 81.282 47.082">
  <g id="Group_366" data-name="Group 366" style="mix-blend-mode: multiply;isolation: isolate">
    <g id="Group_365" data-name="Group 365" style="mix-blend-mode: screen;isolation: isolate">
      <g id="Group_349" data-name="Group 349" transform="translate(38.005)">
        <path id="Path_996" data-name="Path 996" d="M384.428,294.293a1.18,1.18,0,0,1,.013,2.234,4.254,4.254,0,0,1-3.856,0,1.181,1.181,0,0,1-.013-2.234A4.251,4.251,0,0,1,384.428,294.293Z" transform="translate(-379.78 -293.831)" fill="#1ce5ff" opacity="0.74" style="mix-blend-mode: overlay;isolation: isolate"/>
      </g>
      <g id="Group_350" data-name="Group 350" transform="translate(25.337 7.362)">
        <path id="Path_997" data-name="Path 997" d="M371.761,301.655a1.18,1.18,0,0,1,.013,2.233,4.248,4.248,0,0,1-3.856,0,1.18,1.18,0,0,1-.013-2.233A4.248,4.248,0,0,1,371.761,301.655Z" transform="translate(-367.113 -301.192)" fill="#4e3573"/>
      </g>
      <g id="Group_351" data-name="Group 351" transform="translate(12.669 14.724)">
        <path id="Path_998" data-name="Path 998" d="M359.092,309.017a1.181,1.181,0,0,1,.013,2.234,4.254,4.254,0,0,1-3.856,0,1.181,1.181,0,0,1-.013-2.234A4.254,4.254,0,0,1,359.092,309.017Z" transform="translate(-354.444 -308.555)" fill="#4e3573"/>
      </g>
      <g id="Group_352" data-name="Group 352" transform="translate(0 22.086)">
        <path id="Path_999" data-name="Path 999" d="M346.423,316.379a1.18,1.18,0,0,1,.013,2.234,4.254,4.254,0,0,1-3.856,0,1.18,1.18,0,0,1-.013-2.233A4.248,4.248,0,0,1,346.423,316.379Z" transform="translate(-341.775 -315.917)" fill="#1ce5ff" opacity="0.74" style="mix-blend-mode: overlay;isolation: isolate"/>
      </g>
      <g id="Group_353" data-name="Group 353" transform="translate(50.613 7.28)">
        <path id="Path_1000" data-name="Path 1000" d="M397.037,301.573a1.18,1.18,0,0,1,.012,2.233,4.246,4.246,0,0,1-3.855,0,1.18,1.18,0,0,1-.013-2.233A4.248,4.248,0,0,1,397.037,301.573Z" transform="translate(-392.388 -301.11)" fill="#4e3573"/>
      </g>
      <g id="Group_354" data-name="Group 354" transform="translate(37.945 14.641)">
        <path id="Path_1001" data-name="Path 1001" d="M384.37,308.934a1.181,1.181,0,0,1,.012,2.234,4.249,4.249,0,0,1-3.855,0,1.18,1.18,0,0,1-.013-2.234A4.251,4.251,0,0,1,384.37,308.934Z" transform="translate(-379.721 -308.472)" fill="#4e3573"/>
      </g>
      <g id="Group_355" data-name="Group 355" transform="translate(25.277 22.003)" opacity="0.74" style="mix-blend-mode: overlay;isolation: isolate">
        <path id="Path_1002" data-name="Path 1002" d="M371.7,316.3a1.18,1.18,0,0,1,.012,2.233,4.246,4.246,0,0,1-3.855,0,1.18,1.18,0,0,1-.013-2.233A4.245,4.245,0,0,1,371.7,316.3Z" transform="translate(-367.052 -315.834)" fill="#1ce5ff"/>
      </g>
      <g id="Group_356" data-name="Group 356" transform="translate(12.608 29.366)">
        <path id="Path_1003" data-name="Path 1003" d="M359.032,323.659a1.18,1.18,0,0,1,.012,2.234,4.252,4.252,0,0,1-3.855,0,1.18,1.18,0,0,1-.013-2.234A4.248,4.248,0,0,1,359.032,323.659Z" transform="translate(-354.383 -323.196)" fill="#4e3573"/>
      </g>
      <g id="Group_357" data-name="Group 357" transform="translate(63.221 14.558)">
        <path id="Path_1004" data-name="Path 1004" d="M409.644,308.852a1.18,1.18,0,0,1,.012,2.233,4.252,4.252,0,0,1-3.855,0,1.18,1.18,0,0,1-.013-2.233A4.245,4.245,0,0,1,409.644,308.852Z" transform="translate(-404.996 -308.389)" fill="#4e3573"/>
      </g>
      <g id="Group_358" data-name="Group 358" transform="translate(50.553 21.92)">
        <path id="Path_1005" data-name="Path 1005" d="M396.977,316.213a1.18,1.18,0,0,1,.012,2.233,4.245,4.245,0,0,1-3.856,0,1.18,1.18,0,0,1-.012-2.233A4.248,4.248,0,0,1,396.977,316.213Z" transform="translate(-392.328 -315.75)" fill="#4e3573"/>
      </g>
      <g id="Group_359" data-name="Group 359" transform="translate(37.884 29.282)">
        <path id="Path_1006" data-name="Path 1006" d="M384.308,323.575a1.181,1.181,0,0,1,.012,2.234,4.254,4.254,0,0,1-3.856,0,1.181,1.181,0,0,1-.012-2.234A4.254,4.254,0,0,1,384.308,323.575Z" transform="translate(-379.66 -323.113)" fill="#4e3573"/>
      </g>
      <g id="Group_360" data-name="Group 360" transform="translate(25.215 36.644)">
        <path id="Path_1007" data-name="Path 1007" d="M371.639,330.938a1.18,1.18,0,0,1,.012,2.233,4.248,4.248,0,0,1-3.856,0,1.18,1.18,0,0,1-.012-2.233A4.245,4.245,0,0,1,371.639,330.938Z" transform="translate(-366.991 -330.475)" fill="#4e3573"/>
      </g>
      <g id="Group_361" data-name="Group 361" transform="translate(75.829 21.838)">
        <path id="Path_1008" data-name="Path 1008" d="M422.253,316.131a1.18,1.18,0,0,1,.012,2.234,4.254,4.254,0,0,1-3.856,0,1.18,1.18,0,0,1-.012-2.234A4.248,4.248,0,0,1,422.253,316.131Z" transform="translate(-417.604 -315.668)" fill="#4e3573"/>
      </g>
      <g id="Group_362" data-name="Group 362" transform="translate(63.161 29.199)" opacity="0.74" style="mix-blend-mode: overlay;isolation: isolate">
        <path id="Path_1009" data-name="Path 1009" d="M409.585,323.493a1.18,1.18,0,0,1,.013,2.233,4.248,4.248,0,0,1-3.856,0,1.179,1.179,0,0,1-.012-2.233A4.243,4.243,0,0,1,409.585,323.493Z" transform="translate(-404.936 -323.03)" fill="#1ce5ff"/>
      </g>
      <g id="Group_363" data-name="Group 363" transform="translate(50.493 36.562)">
        <path id="Path_1010" data-name="Path 1010" d="M396.916,330.855a1.18,1.18,0,0,1,.013,2.233,4.248,4.248,0,0,1-3.856,0,1.18,1.18,0,0,1-.012-2.233A4.246,4.246,0,0,1,396.916,330.855Z" transform="translate(-392.268 -330.392)" fill="#4e3573"/>
      </g>
      <g id="Group_364" data-name="Group 364" transform="translate(37.824 43.924)">
        <path id="Path_1011" data-name="Path 1011" d="M384.247,338.218a1.18,1.18,0,0,1,.013,2.233,4.254,4.254,0,0,1-3.856,0,1.18,1.18,0,0,1-.012-2.233A4.24,4.24,0,0,1,384.247,338.218Z" transform="translate(-379.599 -337.755)" fill="#4e3573"/>
      </g>
    </g>
  </g>
</svg>
